<svg width="22" height="22" viewBox="0 0 22 22" fill="none" xmlns="http://www.w3.org/2000/svg">
<path d="M20.1346 6.33989C20.1334 6.23677 20.1231 6.13479 20.1025 6.03395C20.0818 5.93312 20.0521 5.83458 20.0119 5.73947C19.973 5.64437 19.9237 5.55385 19.8676 5.46906C19.8103 5.38312 19.745 5.30406 19.6728 5.23072C19.6006 5.15854 19.5215 5.09322 19.4367 5.03593C19.3508 4.97864 19.2614 4.93052 19.1663 4.89041C19.0724 4.85031 18.9738 4.82052 18.8741 4.79989C18.7733 4.77927 18.6725 4.76895 18.5693 4.76781H3.46726C3.36528 4.76781 3.2633 4.77812 3.16247 4.79874C3.06164 4.81937 2.96424 4.84916 2.86914 4.88812C2.77518 4.92822 2.68466 4.97635 2.59987 5.03364C2.51393 5.09093 2.43487 5.15624 2.36268 5.22958C2.29049 5.30177 2.22518 5.38197 2.16789 5.46677C2.11059 5.5527 2.06247 5.64322 2.02351 5.73833C1.98341 5.83343 1.95361 5.93197 1.93414 6.03281C1.91351 6.13364 1.9032 6.23677 1.9032 6.33989V15.7426C1.90434 15.8457 1.91466 15.9477 1.93528 16.0485C1.95591 16.1494 1.9857 16.2479 2.02466 16.343C2.06476 16.4381 2.11289 16.5275 2.17018 16.6134C2.22747 16.6994 2.29164 16.7784 2.36497 16.8506C2.43716 16.924 2.51622 16.9893 2.60101 17.0466C2.6858 17.1038 2.77632 17.152 2.87028 17.1921C2.96539 17.2322 3.06278 17.262 3.16362 17.2826C3.2633 17.3032 3.36528 17.3135 3.46726 17.3147H18.5693C18.6725 17.3147 18.7744 17.3044 18.8741 17.2837C18.975 17.2631 19.0724 17.2333 19.1675 17.1932C19.2626 17.1543 19.3531 17.1061 19.4379 17.0488C19.5227 16.9916 19.6017 16.9262 19.6751 16.8529C19.7473 16.7796 19.8126 16.7005 19.8687 16.6146C19.926 16.5298 19.9741 16.4393 20.0142 16.3442C20.0532 16.2479 20.083 16.1505 20.1036 16.0497C20.1231 15.9477 20.1334 15.8457 20.1346 15.7426V6.33989ZM14.0444 11.0412L19.439 5.83916C19.5284 5.99385 19.5731 6.16114 19.5719 6.33874V15.7426C19.5719 15.9213 19.5284 16.0875 19.439 16.2422L14.0444 11.0412ZM18.5693 5.3327C18.7332 5.33156 18.889 5.37052 19.0346 5.44729L11.3792 12.8276C11.3311 12.8746 11.275 12.9112 11.2131 12.9365C11.1501 12.9617 11.0859 12.9743 11.0183 12.9743C10.9507 12.9743 10.8865 12.9617 10.8235 12.9365C10.7616 12.9112 10.7055 12.8746 10.6574 12.8276L3.00205 5.44843C3.14757 5.37052 3.30341 5.3327 3.46726 5.3327H18.5693ZM2.59872 16.2422C2.50934 16.0875 2.46466 15.9213 2.46466 15.7426V6.33989C2.46466 6.16114 2.5082 5.99385 2.59757 5.84031L7.9933 11.0412L2.59872 16.2422ZM3.46726 16.7498C3.30341 16.7509 3.14757 16.712 3.00205 16.6352L8.39893 11.432L10.2689 13.2355C10.3698 13.3329 10.4855 13.4074 10.615 13.4601C10.7444 13.5128 10.8785 13.538 11.0183 13.538C11.1581 13.538 11.2933 13.5128 11.4228 13.4601C11.5523 13.4074 11.668 13.3329 11.7677 13.2355L13.6388 11.432L19.0346 16.6341C18.889 16.7108 18.7343 16.7498 18.5693 16.7498H3.46726Z" fill="#A9A9A9"/>
</svg>
