<svg fill="none" height="16" viewBox="0 0 18 16" width="18" xmlns="http://www.w3.org/2000/svg"><g stroke="#6f6f70" stroke-linecap="round" stroke-linejoin="round" stroke-width="1.5"><path d="m7.13381 9.97233c-.47917-.47833-.77083-1.12833-.77083-1.8575 0-1.46083 1.17666-2.63833 2.63666-2.63833.7225 0 1.38746.2925 1.85836.77083"/><path d="m11.5873 8.58241c-.1933 1.075-1.04 1.92329-2.11416 2.11829"/><path d="m4.54549 12.5602c-1.3225-1.0383-2.4425-2.555-3.25417-4.44579.82-1.89916 1.9475-3.42416 3.27833-4.47083 1.3225-1.04667 2.84834-1.615 4.43-1.615 1.59085 0 3.11585.57667 4.44665 1.63083"/><path d="m15.2063 5.49234c.5733.76167 1.0775 1.64083 1.5017 2.62167-1.6392 3.79749-4.5359 6.08499-7.70835 6.08499-.71917 0-1.42833-.1167-2.11-.3442"/><path d="m15.5725 1.54134-13.14501 13.14496"/></g></svg>