<svg width="22" height="22" viewBox="0 0 22 22" fill="none" xmlns="http://www.w3.org/2000/svg">
<path fill-rule="evenodd" clip-rule="evenodd" d="M14.7033 6.3674C13.5586 5.83115 12.2902 5.46906 10.9564 5.46906C8.9386 5.46906 7.06974 6.29635 5.55839 7.30469C3.34464 8.78052 1.90662 10.6276 1.90662 10.6276C1.73474 10.8487 1.73474 11.1581 1.90662 11.3804C1.90662 11.3804 3.34464 13.2264 5.55839 14.7033C5.72912 14.8168 5.90443 14.9279 6.08318 15.0356L2.04985 19.0919C1.81151 19.3302 1.8138 19.7186 2.05214 19.957C2.29162 20.1953 2.68005 20.193 2.91724 19.9547L7.20953 15.6395C8.35307 16.1757 9.62151 16.539 10.9564 16.539C12.9731 16.539 14.8419 15.7105 16.3533 14.7033C18.5682 13.2264 20.0062 11.3804 20.0062 11.3804C20.1781 11.1581 20.1781 10.8487 20.0062 10.6276C20.0062 10.6276 18.5682 8.78052 16.3533 7.30469C16.1826 7.19125 16.0084 7.07896 15.8285 6.97125L19.9569 2.82104C20.1953 2.58156 20.193 2.19312 19.9546 1.95479C19.7152 1.7176 19.3267 1.71875 19.0895 1.95823L14.7033 6.3674ZM14.9382 7.86729L13.9459 8.86417C14.3756 9.46802 14.6277 10.2059 14.6277 11.0034C14.6277 13.0407 12.9811 14.6919 10.9564 14.6919C10.1635 14.6919 9.43016 14.4398 8.82974 14.0101L8.13078 14.7125C9.00964 15.0769 9.96068 15.3152 10.9564 15.3152C12.7221 15.3152 14.3504 14.567 15.6749 13.6847C17.1244 12.7187 18.2141 11.5809 18.7229 11.0034C18.2141 10.4271 17.1244 9.28927 15.6749 8.32333C15.4378 8.16521 15.1926 8.01281 14.9382 7.86729ZM13.7809 7.29552C12.902 6.93 11.951 6.69281 10.9564 6.69281C9.18953 6.69281 7.5613 7.44104 6.23787 8.32333C4.78724 9.28927 3.69755 10.4271 3.18995 11.0034C3.69755 11.5809 4.78724 12.7187 6.23787 13.6847C6.47391 13.8417 6.71912 13.9952 6.97349 14.1407L7.96578 13.1427C7.5361 12.54 7.28401 11.8009 7.28401 11.0034C7.28401 8.96729 8.93057 7.315 10.9564 7.315C11.7482 7.315 12.4815 7.56823 13.0819 7.99792L13.7809 7.29552ZM13.0636 9.75219L12.611 10.2071C12.7267 10.4477 12.792 10.7181 12.792 11.0034C12.792 11.3415 12.517 11.6153 12.1802 11.6153C11.9178 11.6153 11.6932 11.4503 11.6061 11.2177L9.70974 13.1255C10.0753 13.3432 10.5004 13.4681 10.9564 13.4681C12.3073 13.4681 13.4039 12.3635 13.4039 11.0034C13.4039 10.5462 13.2802 10.1189 13.0636 9.75219ZM12.2019 8.8825C11.8376 8.66479 11.4113 8.53875 10.9564 8.53875C9.60432 8.53875 8.50776 9.64448 8.50776 11.0034C8.50776 11.4606 8.63151 11.888 8.84807 12.2558L10.7456 10.348C10.5107 10.2621 10.3445 10.0364 10.3445 9.77281C10.3445 9.43594 10.6184 9.16094 10.9564 9.16094C11.2394 9.16094 11.5076 9.2251 11.747 9.34083L12.2019 8.8825Z" fill="#A9A9A9"/>
</svg>
