<svg fill="none" height="13" viewBox="0 0 13 13" width="13" xmlns="http://www.w3.org/2000/svg"><path d="m7.125.25v1.25c2.74375.3375 4.6875 2.83125 4.35 5.575-.138 1.10562-.6406 2.13367-1.4285 2.92152-.78784.78788-1.81589 1.29048-2.9215 1.42848v1.25c3.4375-.375 5.9062-3.4625 5.5312-6.89375-.325-2.9125-2.6187-5.21875-5.5312-5.53125zm-1.25 0c-1.225.1125-2.38125.59375-3.33125 1.375l.89375.9625c.7-.5625 1.54375-.925 2.4375-1.05zm-4.2125 2.29375c-.78395.94685-1.265188 2.10748-1.38125 3.33125h1.25c.11875-.8875.46875-1.73125 1.025-2.4375zm-1.375 4.58125c.125 1.225.60625 2.38125 1.38125 3.3313l.8875-.8938c-.55192-.7065-.90378-1.54837-1.01875-2.4375zm3.125 3.3563-.86875.8562c.94674.7892 2.10579 1.2806 3.33125 1.4125v-1.25c-.88913-.115-1.731-.4668-2.4375-1.0187z" fill="#1b8a11"/></svg>