<svg fill="none" height="18" viewBox="0 0 15 18" width="15" xmlns="http://www.w3.org/2000/svg"><g stroke="#6f6f70" stroke-linecap="round" stroke-linejoin="round" stroke-width="1.5"><circle cx="7.64911" cy="5.06503" r="3.98169"/><path clip-rule="evenodd" d="m1.33333 14.5845c-.00107-.2799.06153-.5564.18306-.8086.38139-.7627 1.45691-1.167 2.34935-1.3501.64364-.1373 1.29616-.2291 1.95271-.2746 1.21556-.1068 2.43814-.1068 3.6537 0 .65645.046 1.30895.1378 1.95275.2746.8924.1831 1.9679.5492 2.3493 1.3501.2444.514.2444 1.1108 0 1.6247-.3814.801-1.4569 1.1671-2.3493 1.3425-.6429.1431-1.2957.2374-1.95275.2823-.98936.0838-1.98335.0991-2.97483.0457-.22883 0-.45003 0-.67887-.0457-.65461-.0443-1.30487-.1387-1.94508-.2823-.90007-.1754-1.96796-.5415-2.35698-1.3425-.12091-.255-.18345-.5338-.18306-.8161z" fill-rule="evenodd"/></g></svg>